# xmcd CD database file
#
# Track frame offsets:
#	150
#	6703
#	20337
#	45320
#	63825
#	81490
#	96152
#	133568
#	178970
#	197353
#
# Disc length: 3021 seconds
#
# Revision: 0
# Processed by: cddbd v1.4PL0 Copyright (c) Steve Scherf et al.
# Submitted via: CDex 1.50
#
DISCID=800bcb0a
DTITLE=Sky beneath my feet - Sky beneath my feet
DYEAR=2003
DGENRE=Jazz
TTITLE0=People Might Just Dissapear into Air
TTITLE1=Afternoon Off
TTITLE2=Wierd Dreams
TTITLE3=Sunday Fever
TTITLE4=El Perro
TTITLE5=Saying Goodbye
TTITLE6=Stoner
TTITLE7=Sanctuary/Sky beneath my feet
TTITLE8=Freezing
TTITLE9=Trafffik
EXTD=YEAR: 2003
EXTT0=
EXTT1=
EXTT2=
EXTT3=
EXTT4=
EXTT5=
EXTT6=
EXTT7=
EXTT8=
EXTT9=
PLAYORDER=
